<?xml version="1.0" encoding="UTF-8"?>
<svg id="Livello_2" data-name="Livello 2" xmlns="http://www.w3.org/2000/svg" viewBox="0 0 348.33 197.12">
  <defs>
    <style>
      .cls-1 {
        fill: #fff;
        stroke-width: 0px;
      }
    </style>
  </defs>
  <g id="Livello_1-2" data-name="Livello 1">
    <g>
      <path class="cls-1" d="M73.11,1.53c1.23-.12,2.46-.24,3.69-.36,5.41,12.13,4.33,14.83-8.94,19.2-10.2,3.36-19.66,8.82-30.4,10.57-3.46.56-4.74,2.79-4.93,5.89-.29,4.68-.46,9.38-.75,15.53,5.57-6,11.92-7.69,17.85-10.13,7.91-3.26,14.7-.55,18.01,7.37,6.65,15.94.8,30.03-7.83,43.04-9.93,14.98-22.28,27.6-39.4,34.78-3.42,1.43-6.72,3.18-10.38,3.3-3.4.11-8.11,1.83-9.4-3.11-1.14-4.36-1.13-9.05,3.63-12.04,7.88-4.93,15.57-10.17,23.58-14.87,13.34-7.84,23.3-18.63,29.92-32.52,2.15-4.51,3.58-9.38-.5-13.38-4.34-4.25-8.75-.79-12.28,1.57-7.55,5.06-14.04,11.33-18.56,19.4-1.48,2.64-2.85,6.45-6.69,4.9-3.71-1.5-2.3-5.17-1.67-8.21,2-9.66,4-19.33,5.89-29.01,1.92-9.82,1.86-9.83-8.33-7.77,0,0,0,0,0,0,1.23-6.57,6-10.49,11.54-12.59,12.61-4.77,23.66-13.28,37.51-15.11,3.62-.48,6.8-2.78,8.46-6.44Z"/>
      <path class="cls-1" d="M92.25,13.59c.51-.1,1.02-.22,1.52-.36,7.14-1.89,13.82-7.16,21.82-2.08,2.4,1.53,4.73,2.8,6.52,5.11,9.62,12.35,7.19,39.35-4.75,49.37-5.13,4.31-11.04,7.04-18.05,5.12-2.85-.78-5.23-.58-8.08.77-9.47,4.49-16.02.1-16.12-10.58-.17-17.87,3.2-34.52,17.12-47.36ZM119.26,34.79c.02-11.24-5.3-14.92-15.3-11.64-9.41,3.09-15.06,9.3-17.01,19.03-1.19,5.94-4.3,12.03,3.36,16.21,7.75,4.23,15.95,3.03,21.32-3.41,5.09-6.09,6.82-13.4,7.64-20.2Z"/>
      <path class="cls-1" d="M125.99,6.72c2.01-6,6.4-7.47,12.15-6.39.55,1.87,1.63,3.76,1.55,5.6-.23,5.38-1.78,10.49-8.31,10.62-7.28.15-5.26-5.62-5.39-9.83Z"/>
    </g>
    <g>
      <path class="cls-1" d="M85.71,113.69v.62h-9.73v-.62h.8c.94,0,1.62-.27,2.04-.82.27-.36.4-1.22.4-2.58v-14.67c0-1.15-.07-1.91-.22-2.28-.11-.28-.34-.52-.69-.72-.49-.27-1-.4-1.54-.4h-.8v-.62h9.73v.62h-.82c-.93,0-1.6.27-2.03.82-.28.36-.42,1.22-.42,2.58v14.67c0,1.15.07,1.91.22,2.28.11.28.35.52.7.72.48.27.99.4,1.52.4h.82Z"/>
      <path class="cls-1" d="M86.95,91.61h6.16l13.88,17.03v-13.09c0-1.4-.16-2.27-.47-2.61-.41-.47-1.07-.7-1.96-.7h-.79v-.62h7.9v.62h-.8c-.96,0-1.64.29-2.04.87-.25.36-.37,1.17-.37,2.44v19.14h-.6l-14.97-18.28v13.98c0,1.4.15,2.27.45,2.61.42.47,1.08.7,1.96.7h.8v.62h-7.9v-.62h.79c.97,0,1.66-.29,2.06-.87.25-.36.37-1.17.37-2.44v-15.79c-.66-.77-1.16-1.28-1.5-1.52s-.84-.47-1.5-.69c-.32-.1-.82-.15-1.47-.15v-.62Z"/>
      <path class="cls-1" d="M133.66,91.09l.52,7.72h-.52c-.69-2.31-1.68-3.97-2.96-4.99-1.28-1.02-2.82-1.52-4.62-1.52-1.51,0-2.87.38-4.08,1.15-1.22.76-2.17,1.98-2.87,3.66-.7,1.67-1.05,3.76-1.05,6.24,0,2.05.33,3.83.99,5.34.66,1.51,1.65,2.66,2.97,3.47,1.32.8,2.83,1.21,4.53,1.21,1.47,0,2.77-.32,3.9-.95,1.13-.63,2.37-1.88,3.72-3.76l.52.33c-1.14,2.02-2.47,3.5-3.98,4.44-1.52.94-3.32,1.41-5.41,1.41-3.76,0-6.67-1.4-8.74-4.19-1.54-2.08-2.31-4.52-2.31-7.33,0-2.27.51-4.35,1.52-6.24,1.02-1.9,2.41-3.37,4.19-4.41,1.78-1.04,3.73-1.57,5.83-1.57,1.64,0,3.26.4,4.85,1.21.47.25.8.37,1,.37.3,0,.56-.11.79-.32.29-.3.5-.72.62-1.26h.59Z"/>
      <path class="cls-1" d="M149.29,91.09c2.95,0,5.5,1.12,7.66,3.36,2.16,2.24,3.24,5.03,3.24,8.38s-1.09,6.31-3.26,8.59-4.81,3.42-7.9,3.42-5.75-1.11-7.88-3.33-3.19-5.1-3.19-8.62,1.23-6.55,3.68-8.82c2.13-1.98,4.68-2.96,7.65-2.96ZM148.97,92.31c-2.03,0-3.66.75-4.89,2.26-1.53,1.88-2.29,4.62-2.29,8.24s.79,6.56,2.38,8.55c1.22,1.52,2.82,2.28,4.82,2.28,2.13,0,3.89-.83,5.28-2.49s2.08-4.29,2.08-7.87c0-3.88-.76-6.78-2.29-8.69-1.23-1.52-2.92-2.28-5.09-2.28Z"/>
      <path class="cls-1" d="M161.91,91.61h6.16l13.88,17.03v-13.09c0-1.4-.16-2.27-.47-2.61-.41-.47-1.07-.7-1.96-.7h-.79v-.62h7.9v.62h-.8c-.96,0-1.64.29-2.04.87-.25.36-.37,1.17-.37,2.44v19.14h-.6l-14.97-18.28v13.98c0,1.4.15,2.27.45,2.61.42.47,1.08.7,1.96.7h.8v.62h-7.9v-.62h.79c.97,0,1.66-.29,2.06-.87.25-.36.37-1.17.37-2.44v-15.79c-.66-.77-1.16-1.28-1.5-1.52s-.84-.47-1.5-.69c-.32-.1-.82-.15-1.47-.15v-.62Z"/>
      <path class="cls-1" d="M207.82,91.61l.25,5.32h-.64c-.12-.94-.29-1.61-.5-2.01-.35-.65-.81-1.12-1.38-1.43s-1.33-.46-2.27-.46h-3.2v17.34c0,1.4.15,2.27.45,2.61.42.47,1.08.7,1.96.7h.79v.62h-9.63v-.62h.8c.96,0,1.64-.29,2.04-.87.25-.36.37-1.17.37-2.44v-17.34h-2.73c-1.06,0-1.81.08-2.26.23-.58.21-1.08.62-1.49,1.22-.41.6-.66,1.42-.74,2.44h-.64l.27-5.32h18.53Z"/>
      <path class="cls-1" d="M232.96,114.31h-6.06l-7.68-10.61c-.57.02-1.03.03-1.39.03-.15,0-.3,0-.47,0-.17,0-.34-.01-.52-.02v6.6c0,1.43.16,2.32.47,2.66.42.49,1.06.74,1.91.74h.89v.62h-9.73v-.62h.85c.96,0,1.65-.31,2.06-.94.23-.35.35-1.17.35-2.46v-14.67c0-1.43-.16-2.32-.47-2.66-.44-.49-1.08-.74-1.94-.74h-.85v-.62h8.27c2.41,0,4.19.18,5.33.53,1.14.35,2.12,1,2.91,1.94.8.94,1.2,2.07,1.2,3.37,0,1.4-.46,2.61-1.36,3.63-.91,1.03-2.32,1.75-4.23,2.18l4.69,6.51c1.07,1.5,1.99,2.49,2.76,2.98.77.49,1.77.8,3.01.94v.62ZM216.83,102.64c.21,0,.4,0,.55,0,.16,0,.29,0,.38,0,2.17,0,3.8-.47,4.9-1.41s1.65-2.13,1.65-3.58-.44-2.57-1.33-3.46c-.89-.89-2.06-1.33-3.52-1.33-.65,0-1.52.11-2.63.32v9.44Z"/>
      <path class="cls-1" d="M246.05,91.09c2.95,0,5.5,1.12,7.66,3.36,2.16,2.24,3.24,5.03,3.24,8.38s-1.09,6.31-3.26,8.59-4.81,3.42-7.9,3.42-5.75-1.11-7.88-3.33-3.19-5.1-3.19-8.62,1.23-6.55,3.68-8.82c2.13-1.98,4.68-2.96,7.65-2.96ZM245.73,92.31c-2.03,0-3.66.75-4.89,2.26-1.53,1.88-2.29,4.62-2.29,8.24s.79,6.56,2.38,8.55c1.22,1.52,2.82,2.28,4.82,2.28,2.13,0,3.89-.83,5.28-2.49s2.08-4.29,2.08-7.87c0-3.88-.76-6.78-2.29-8.69-1.23-1.52-2.92-2.28-5.09-2.28Z"/>
      <path class="cls-1" d="M74.68,132.75h6.16l13.88,17.03v-13.09c0-1.4-.16-2.27-.47-2.61-.41-.47-1.07-.7-1.96-.7h-.79v-.62h7.9v.62h-.8c-.96,0-1.64.29-2.04.87-.25.36-.37,1.17-.37,2.44v19.14h-.6l-14.97-18.28v13.98c0,1.4.15,2.27.45,2.61.42.47,1.08.7,1.96.7h.8v.62h-7.9v-.62h.79c.97,0,1.66-.29,2.06-.87.25-.36.37-1.17.37-2.44v-15.79c-.66-.77-1.16-1.28-1.5-1.52s-.84-.47-1.5-.69c-.32-.1-.82-.15-1.47-.15v-.62Z"/>
      <path class="cls-1" d="M116.43,147.85h-8.79l-1.54,3.58c-.38.88-.57,1.54-.57,1.98,0,.35.17.65.49.91s1.04.43,2.13.51v.62h-7.15v-.62c.95-.17,1.56-.38,1.84-.65.57-.54,1.2-1.62,1.89-3.26l7.99-18.68h.59l7.9,18.88c.64,1.52,1.21,2.5,1.73,2.95.52.45,1.24.71,2.17.76v.62h-8.96v-.62c.9-.04,1.52-.19,1.83-.45.32-.26.48-.57.48-.94,0-.49-.22-1.27-.67-2.33l-1.37-3.26ZM115.96,146.61l-3.85-9.17-3.95,9.17h7.8Z"/>
      <path class="cls-1" d="M146.09,132.75l-14.92,21.33h9.31c1.43,0,2.53-.31,3.29-.94.76-.62,1.44-1.89,2.03-3.8l.55.1-1.07,6.01h-18.48v-.62l14.57-20.73h-7.27c-1.21,0-2.08.13-2.62.39-.54.26-.95.64-1.24,1.14-.29.5-.54,1.43-.78,2.79h-.64l.47-5.68h16.79Z"/>
      <path class="cls-1" d="M158.75,154.83v.62h-9.73v-.62h.8c.94,0,1.62-.27,2.04-.82.27-.36.4-1.22.4-2.58v-14.67c0-1.15-.07-1.91-.22-2.28-.11-.28-.34-.52-.69-.72-.49-.27-1-.4-1.54-.4h-.8v-.62h9.73v.62h-.82c-.93,0-1.6.27-2.03.82-.28.36-.42,1.22-.42,2.58v14.67c0,1.15.07,1.91.22,2.28.11.28.35.52.7.72.48.27.99.4,1.52.4h.82Z"/>
      <path class="cls-1" d="M172.98,132.23c2.95,0,5.5,1.12,7.66,3.36,2.16,2.24,3.24,5.03,3.24,8.38s-1.09,6.31-3.26,8.59-4.81,3.42-7.9,3.42-5.75-1.11-7.88-3.33-3.19-5.1-3.19-8.62,1.23-6.55,3.68-8.82c2.13-1.98,4.68-2.96,7.65-2.96ZM172.66,133.46c-2.03,0-3.66.75-4.89,2.26-1.53,1.88-2.29,4.62-2.29,8.24s.79,6.56,2.38,8.55c1.22,1.52,2.82,2.28,4.82,2.28,2.13,0,3.89-.83,5.28-2.49s2.08-4.29,2.08-7.87c0-3.88-.76-6.78-2.29-8.69-1.23-1.52-2.92-2.28-5.09-2.28Z"/>
      <path class="cls-1" d="M185.61,132.75h6.16l13.88,17.03v-13.09c0-1.4-.16-2.27-.47-2.61-.41-.47-1.07-.7-1.96-.7h-.79v-.62h7.9v.62h-.8c-.96,0-1.64.29-2.04.87-.25.36-.37,1.17-.37,2.44v19.14h-.6l-14.97-18.28v13.98c0,1.4.15,2.27.45,2.61.42.47,1.08.7,1.96.7h.8v.62h-7.9v-.62h.79c.97,0,1.66-.29,2.06-.87.25-.36.37-1.17.37-2.44v-15.79c-.66-.77-1.16-1.28-1.5-1.52s-.84-.47-1.5-.69c-.32-.1-.82-.15-1.47-.15v-.62Z"/>
      <path class="cls-1" d="M227.36,147.85h-8.79l-1.54,3.58c-.38.88-.57,1.54-.57,1.98,0,.35.17.65.49.91s1.04.43,2.13.51v.62h-7.15v-.62c.95-.17,1.56-.38,1.84-.65.57-.54,1.2-1.62,1.89-3.26l7.99-18.68h.59l7.9,18.88c.64,1.52,1.21,2.5,1.73,2.95.52.45,1.24.71,2.17.76v.62h-8.96v-.62c.9-.04,1.52-.19,1.83-.45.32-.26.48-.57.48-.94,0-.49-.22-1.27-.67-2.33l-1.37-3.26ZM226.9,146.61l-3.85-9.17-3.95,9.17h7.8Z"/>
      <path class="cls-1" d="M256.95,149.18l.55.12-1.94,6.16h-17.58v-.62h.85c.96,0,1.65-.31,2.06-.94.23-.36.35-1.18.35-2.48v-14.65c0-1.42-.16-2.3-.47-2.66-.44-.49-1.08-.74-1.94-.74h-.85v-.62h10.28v.62c-1.21-.01-2.05.1-2.54.33s-.82.53-1,.89c-.18.36-.27,1.21-.27,2.56v14.26c0,.93.09,1.56.27,1.91.13.23.34.41.62.52.28.11,1.15.17,2.61.17h1.66c1.74,0,2.96-.13,3.67-.38s1.34-.71,1.93-1.36c.58-.65,1.16-1.68,1.74-3.09Z"/>
      <path class="cls-1" d="M266.26,133.99v8.97h4.99c1.29,0,2.16-.2,2.59-.59.58-.51.9-1.42.97-2.71h.62v7.9h-.62c-.16-1.1-.31-1.81-.47-2.13-.2-.39-.53-.7-.99-.92-.46-.22-1.16-.33-2.11-.33h-4.99v7.48c0,1,.04,1.62.13,1.83.09.22.25.39.47.52.22.13.65.19,1.27.19h3.85c1.28,0,2.21-.09,2.8-.27.58-.18,1.14-.53,1.67-1.05.69-.69,1.4-1.74,2.13-3.13h.67l-1.96,5.69h-17.5v-.62h.8c.54,0,1.04-.13,1.52-.38.36-.18.6-.45.73-.8.13-.36.19-1.09.19-2.19v-14.75c0-1.44-.15-2.33-.44-2.66-.4-.45-1.07-.67-2.01-.67h-.8v-.62h17.5l.25,4.97h-.65c-.23-1.19-.49-2.01-.78-2.46-.28-.45-.71-.79-1.26-1.02-.45-.17-1.23-.25-2.36-.25h-6.23Z"/>
      <path class="cls-1" d="M290.91,155.45v-.62h.85c.96,0,1.64-.31,2.04-.92.25-.37.37-1.19.37-2.48v-14.67c0-1.42-.16-2.3-.47-2.66-.44-.49-1.08-.74-1.94-.74h-.85v-.62h9.24c3.39,0,5.97.38,7.74,1.15,1.77.77,3.19,2.05,4.27,3.85,1.08,1.8,1.62,3.87,1.62,6.23,0,3.16-.96,5.8-2.88,7.92-2.15,2.37-5.44,3.55-9.84,3.55h-10.15ZM297.39,153.81c1.42.31,2.61.47,3.57.47,2.59,0,4.74-.91,6.45-2.73,1.71-1.82,2.56-4.29,2.56-7.4s-.85-5.61-2.56-7.42c-1.71-1.81-3.9-2.71-6.58-2.71-1,0-2.15.16-3.43.49v19.3Z"/>
      <path class="cls-1" d="M323.11,133.99v8.97h4.99c1.29,0,2.16-.2,2.59-.59.58-.51.9-1.42.97-2.71h.62v7.9h-.62c-.16-1.1-.31-1.81-.47-2.13-.2-.39-.53-.7-.99-.92-.46-.22-1.16-.33-2.11-.33h-4.99v7.48c0,1,.04,1.62.13,1.83.09.22.25.39.47.52.22.13.65.19,1.27.19h3.85c1.28,0,2.21-.09,2.8-.27.58-.18,1.14-.53,1.67-1.05.69-.69,1.4-1.74,2.13-3.13h.67l-1.96,5.69h-17.5v-.62h.8c.54,0,1.04-.13,1.52-.38.36-.18.6-.45.73-.8.13-.36.19-1.09.19-2.19v-14.75c0-1.44-.15-2.33-.44-2.66-.4-.45-1.07-.67-2.01-.67h-.8v-.62h17.5l.25,4.97h-.65c-.23-1.19-.49-2.01-.78-2.46-.28-.45-.71-.79-1.26-1.02-.45-.17-1.23-.25-2.36-.25h-6.23Z"/>
      <path class="cls-1" d="M348.33,154.83v.62h-9.73v-.62h.8c.94,0,1.62-.27,2.04-.82.27-.36.4-1.22.4-2.58v-14.67c0-1.15-.07-1.91-.22-2.28-.11-.28-.34-.52-.69-.72-.49-.27-1-.4-1.54-.4h-.8v-.62h9.73v.62h-.82c-.93,0-1.6.27-2.03.82-.28.36-.42,1.22-.42,2.58v14.67c0,1.15.07,1.91.22,2.28.11.28.35.52.7.72.48.27.99.4,1.52.4h.82Z"/>
      <path class="cls-1" d="M89.16,196.6l-8.77-19.1v15.17c0,1.4.15,2.27.45,2.61.41.47,1.07.7,1.96.7h.8v.62h-7.9v-.62h.8c.96,0,1.64-.29,2.04-.87.25-.36.37-1.17.37-2.44v-14.83c0-1-.11-1.73-.33-2.18-.16-.32-.44-.59-.86-.81-.42-.22-1.09-.33-2.02-.33v-.62h6.43l8.24,17.76,8.1-17.76h6.43v.62h-.79c-.97,0-1.66.29-2.06.87-.25.36-.37,1.17-.37,2.44v14.83c0,1.4.16,2.27.47,2.61.41.47,1.07.7,1.96.7h.79v.62h-9.64v-.62h.8c.97,0,1.65-.29,2.04-.87.25-.36.37-1.17.37-2.44v-15.17l-8.76,19.1h-.55Z"/>
      <path class="cls-1" d="M122.16,189h-8.79l-1.54,3.58c-.38.88-.57,1.54-.57,1.98,0,.35.17.65.49.91s1.04.43,2.13.51v.62h-7.15v-.62c.95-.17,1.56-.38,1.84-.65.57-.54,1.2-1.62,1.89-3.26l7.99-18.68h.59l7.9,18.88c.64,1.52,1.21,2.5,1.73,2.95.52.45,1.24.71,2.17.76v.62h-8.96v-.62c.9-.04,1.52-.19,1.83-.45.32-.26.48-.57.48-.94,0-.49-.22-1.27-.67-2.33l-1.37-3.26ZM121.69,187.76l-3.85-9.17-3.95,9.17h7.8Z"/>
      <path class="cls-1" d="M132.68,196.6v-.62h.85c.96,0,1.64-.31,2.04-.92.25-.37.37-1.19.37-2.48v-14.67c0-1.42-.16-2.3-.47-2.66-.44-.49-1.08-.74-1.94-.74h-.85v-.62h9.24c3.39,0,5.97.38,7.74,1.15,1.77.77,3.19,2.05,4.27,3.85,1.08,1.8,1.62,3.87,1.62,6.23,0,3.16-.96,5.8-2.88,7.92-2.15,2.37-5.44,3.55-9.84,3.55h-10.15ZM139.16,194.96c1.42.31,2.61.47,3.57.47,2.59,0,4.74-.91,6.45-2.73,1.71-1.82,2.56-4.29,2.56-7.4s-.85-5.61-2.56-7.42c-1.71-1.81-3.9-2.71-6.58-2.71-1,0-2.15.16-3.43.49v19.3Z"/>
      <path class="cls-1" d="M170.25,173.38c2.95,0,5.5,1.12,7.66,3.36,2.16,2.24,3.24,5.03,3.24,8.38s-1.09,6.31-3.26,8.59-4.81,3.42-7.9,3.42-5.75-1.11-7.88-3.33-3.19-5.1-3.19-8.62,1.23-6.55,3.68-8.82c2.13-1.98,4.68-2.96,7.65-2.96ZM169.93,174.6c-2.03,0-3.66.75-4.89,2.26-1.53,1.88-2.29,4.62-2.29,8.24s.79,6.56,2.38,8.55c1.22,1.52,2.82,2.28,4.82,2.28,2.13,0,3.89-.83,5.28-2.49s2.08-4.29,2.08-7.87c0-3.88-.76-6.78-2.29-8.69-1.23-1.52-2.92-2.28-5.09-2.28Z"/>
      <path class="cls-1" d="M182.87,173.9h6.16l13.88,17.03v-13.09c0-1.4-.16-2.27-.47-2.61-.41-.47-1.07-.7-1.96-.7h-.79v-.62h7.9v.62h-.8c-.96,0-1.64.29-2.04.87-.25.36-.37,1.17-.37,2.44v19.14h-.6l-14.97-18.28v13.98c0,1.4.15,2.27.45,2.61.42.47,1.08.7,1.96.7h.8v.62h-7.9v-.62h.79c.97,0,1.66-.29,2.06-.87.25-.36.37-1.17.37-2.44v-15.79c-.66-.77-1.16-1.28-1.5-1.52s-.84-.47-1.5-.69c-.32-.1-.82-.15-1.47-.15v-.62Z"/>
      <path class="cls-1" d="M208.49,173.9h6.16l13.88,17.03v-13.09c0-1.4-.16-2.27-.47-2.61-.41-.47-1.07-.7-1.96-.7h-.79v-.62h7.9v.62h-.8c-.96,0-1.64.29-2.04.87-.25.36-.37,1.17-.37,2.44v19.14h-.6l-14.97-18.28v13.98c0,1.4.15,2.27.45,2.61.42.47,1.08.7,1.96.7h.8v.62h-7.9v-.62h.79c.97,0,1.66-.29,2.06-.87.25-.36.37-1.17.37-2.44v-15.79c-.66-.77-1.16-1.28-1.5-1.52s-.84-.47-1.5-.69c-.32-.1-.82-.15-1.47-.15v-.62Z"/>
      <path class="cls-1" d="M250.25,189h-8.79l-1.54,3.58c-.38.88-.57,1.54-.57,1.98,0,.35.17.65.49.91s1.04.43,2.13.51v.62h-7.15v-.62c.95-.17,1.56-.38,1.84-.65.57-.54,1.2-1.62,1.89-3.26l7.99-18.68h.59l7.9,18.88c.64,1.52,1.21,2.5,1.73,2.95.52.45,1.24.71,2.17.76v.62h-8.96v-.62c.9-.04,1.52-.19,1.83-.45.32-.26.48-.57.48-.94,0-.49-.22-1.27-.67-2.33l-1.37-3.26ZM249.78,187.76l-3.85-9.17-3.95,9.17h7.8Z"/>
      <path class="cls-1" d="M283.35,196.6h-6.06l-7.68-10.61c-.57.02-1.03.03-1.39.03-.15,0-.3,0-.47,0-.17,0-.34-.01-.52-.02v6.6c0,1.43.16,2.32.47,2.66.42.49,1.06.74,1.91.74h.89v.62h-9.73v-.62h.85c.96,0,1.65-.31,2.06-.94.23-.35.35-1.17.35-2.46v-14.67c0-1.43-.16-2.32-.47-2.66-.44-.49-1.08-.74-1.94-.74h-.85v-.62h8.27c2.41,0,4.19.18,5.33.53,1.14.35,2.12,1,2.91,1.94.8.94,1.2,2.07,1.2,3.37,0,1.4-.46,2.61-1.36,3.63-.91,1.03-2.32,1.75-4.23,2.18l4.69,6.51c1.07,1.5,1.99,2.49,2.76,2.98.77.49,1.77.8,3.01.94v.62ZM267.23,184.93c.21,0,.4,0,.55,0,.16,0,.29,0,.38,0,2.17,0,3.8-.47,4.9-1.41s1.65-2.13,1.65-3.58-.44-2.57-1.33-3.46c-.89-.89-2.06-1.33-3.52-1.33-.65,0-1.52.11-2.63.32v9.44Z"/>
      <path class="cls-1" d="M294.49,195.98v.62h-9.73v-.62h.8c.94,0,1.62-.27,2.04-.82.27-.36.4-1.22.4-2.58v-14.67c0-1.15-.07-1.91-.22-2.28-.11-.28-.34-.52-.69-.72-.49-.27-1-.4-1.54-.4h-.8v-.62h9.73v.62h-.82c-.93,0-1.6.27-2.03.82-.28.36-.42,1.22-.42,2.58v14.67c0,1.15.07,1.91.22,2.28.11.28.35.52.7.72.48.27.99.4,1.52.4h.82Z"/>
    </g>
  </g>
</svg>