<?xml version="1.0" encoding="UTF-8"?>
<svg id="Livello_2" data-name="Livello 2" xmlns="http://www.w3.org/2000/svg" viewBox="0 0 296.2 87.91">
  <defs>
    <style>
      .cls-1 {
        stroke: #2675b4;
        stroke-miterlimit: 10;
        stroke-width: .75px;
      }

      .cls-1, .cls-2 {
        fill: #fff;
      }

      .cls-3 {
        fill: #2675b4;
      }

      .cls-3, .cls-2 {
        stroke-width: 0px;
      }
    </style>
  </defs>
  <g id="Livello_1-2" data-name="Livello 1">
    <g>
      <g>
        <path class="cls-3" d="M293.38,3.43v81.4H3.06V3.43h290.31M294.13,2.68H2.31v82.9h291.81V2.68h0Z"/>
        <rect class="cls-1" x="291.26" y="41.75" width="4.57" height="4.76"/>
        <rect class="cls-1" x=".68" y="82.5" width="4.57" height="4.76"/>
        <rect class="cls-1" x="291.26" y="82.44" width="4.57" height="4.76"/>
        <rect class="cls-1" x="145.93" y="82.78" width="4.57" height="4.76"/>
        <rect class="cls-1" x=".74" y=".38" width="4.57" height="4.76"/>
        <rect class="cls-1" x=".38" y="41.75" width="4.57" height="4.76"/>
        <rect class="cls-1" x="291.13" y=".42" width="4.57" height="4.76"/>
        <rect class="cls-1" x="145.93" y=".72" width="4.57" height="4.76"/>
      </g>
      <g>
        <g>
          <path class="cls-2" d="M67.09,62.61c-4.68,0-5.95-2.14-5.95-9.75v-11.84c0-9.67,1.58-15.7,8.48-15.7,4.68,0,5.95,2.14,5.95,9.75v11.84c0,9.67-1.59,15.7-8.48,15.7M48.45,46.91c0,9.67-1.58,15.7-8.48,15.7-4.68,0-5.95-2.14-5.95-9.75v-11.84c0-9.67,1.59-15.7,8.48-15.7,4.68,0,5.95,2.14,5.95,9.75v11.84ZM88.23,32.88c-.25-10.2-3.49-18.66-13.3-18.66-7.74,0-13.63,4.79-15.24,11.89-1.2-6.93-4.38-11.89-11.88-11.89s-12.21,4.81-13.8,11.93v-11.14h-12.69v40.04h.02c.25,10.2,3.49,18.66,13.3,18.66,7.75,0,13.62-4.84,15.23-11.94,1.19,6.96,4.37,11.94,11.89,11.94s12.15-4.64,13.8-11.59v10.79h12.69v-40.04h-.02Z"/>
          <path class="cls-2" d="M111,32.56c0-1.49,1.21-2.7,2.82-2.7s2.82,1.21,2.82,2.7c0,1.57-1.25,2.74-2.82,2.74s-2.82-1.17-2.82-2.74M107.32,55.11h5.48v-14.33l-4.03.35v-2.74l4.5-.39c1.84-.16,2.55.86,2.55,2.35v14.76h5.48v2.74h-13.98v-2.74Z"/>
          <path class="cls-2" d="M155.32,45.6v12.26h-3.21v-11.51c0-3.76-.82-5.6-3.99-5.6-3.88,0-6.19,3.45-6.19,8.54v8.58h-3.21v-11.51c0-3.76-.82-5.6-3.99-5.6-3.88,0-6.19,3.45-6.19,8.54v8.58h-3.21v-19.46h3.21v3.33l-.51,2.19h.9c.78-3.52,2.82-5.91,6.97-5.91,3.52,0,5.4,2.43,5.83,5.91h.59c.78-3.52,2.82-5.91,6.97-5.91s6.03,3.25,6.03,7.6"/>
          <path class="cls-2" d="M190.53,45.6v12.26h-3.21v-11.51c0-3.76-.82-5.6-3.99-5.6-3.88,0-6.19,3.45-6.19,8.54v8.58h-3.21v-11.51c0-3.76-.82-5.6-3.99-5.6-3.88,0-6.19,3.45-6.19,8.54v8.58h-3.21v-19.46h3.21v3.33l-.51,2.19h.9c.78-3.52,2.82-5.91,6.97-5.91,3.52,0,5.4,2.43,5.83,5.91h.59c.78-3.52,2.82-5.91,6.97-5.91s6.03,3.25,6.03,7.6"/>
          <path class="cls-2" d="M210.26,46.3c0-3.13-2.07-5.6-5.95-5.6s-6.3,2.47-6.3,5.6h12.26ZM204.31,38c5.48,0,9.09,3.48,9.09,9.48v1.25h-15.39c.2,3.68,1.96,6.85,6.77,6.85,3.21,0,5.36-1.57,6.07-4.54h3.21c-.74,3.02-3.1,7.2-9.28,7.2-6.97,0-9.91-4.78-9.91-10.38,0-6.26,3.92-9.87,9.44-9.87"/>
          <path class="cls-2" d="M218.48,40.7c0-1.84.86-2.74,2.7-2.66l10.81.35v2.74l-10.3-.35v17.07h-3.21v-17.15Z"/>
          <path class="cls-2" d="M243.39,58.25c-6.3,0-8.89-2.94-8.89-7.56h3.21c0,3.37,1.96,4.93,5.72,4.93,3.01,0,4.42-.7,4.42-2.7,0-2.54-2.62-2.98-5.8-3.95-3.68-1.17-6.66-2.31-6.66-5.84,0-3.09,2.62-5.13,7.09-5.13,6.07,0,7.91,3.33,7.91,6.54h-3.21c0-2.62-1.61-3.92-4.7-3.92-2.15,0-3.88.63-3.88,2.39,0,1.88,1.33,2.47,4.46,3.48,3.84,1.25,7.99,2.11,7.99,6.3,0,2.94-1.84,5.44-7.67,5.44"/>
          <path class="cls-2" d="M264.65,55.51c4.58,0,7.05-3.33,7.05-7.4s-2.47-7.36-7.05-7.36-7.09,3.33-7.09,7.36,2.47,7.4,7.09,7.4M264.65,38c6.19,0,10.22,4.46,10.22,10.1s-4.03,10.14-10.22,10.14-10.3-4.46-10.3-10.14,4.07-10.1,10.3-10.1"/>
        </g>
        <path class="cls-2" d="M279.02,33.12v.72h-1.4v3.65h-.87v-3.65h-1.4v-.72h3.67ZM283.75,37.5l-.16-2.57c-.02-.34-.02-.76-.03-1.22h-.05c-.11.39-.24.9-.37,1.3l-.79,2.43h-.9l-.79-2.49c-.08-.34-.21-.85-.31-1.24h-.05c0,.4-.02.82-.03,1.22l-.16,2.57h-.84l.32-4.38h1.3l.76,2.14c.1.34.18.66.29,1.11h.02c.11-.4.21-.77.31-1.09l.76-2.16h1.25l.34,4.38h-.87Z"/>
      </g>
    </g>
  </g>
</svg>